<svg xmlns="http://www.w3.org/2000/svg" viewBox="0 0 360 220" fill="none" aria-hidden="true">
  <rect width="360" height="220" rx="14" fill="#0c0c14"/>
  <rect width="360" height="220" rx="14" stroke="rgba(167,139,250,0.25)" stroke-width="1"/>
  <rect x="14" y="14" width="332" height="140" rx="10" fill="#12121a" stroke="rgba(255,255,255,0.06)"/>
  <rect x="28" y="32" width="120" height="100" rx="4" fill="#0f172a" stroke="#334155"/>
  <path d="M88 58v36M70 76h36" stroke="#64748b" stroke-width="2" stroke-linecap="round"/>
  <rect x="168" y="40" width="162" height="8" rx="2" fill="#334155"/>
  <rect x="168" y="56" width="130" height="8" rx="2" fill="#1e293b"/>
  <rect x="168" y="72" width="145" height="8" rx="2" fill="#1e293b"/>
  <rect x="168" y="96" width="72" height="24" rx="6" fill="#4f46e5"/>
  <rect x="250" y="96" width="72" height="24" rx="6" fill="#0d9488" opacity="0.7"/>
  <rect x="14" y="168" width="332" height="38" rx="10" fill="#151520" stroke="rgba(99,102,241,0.25)"/>
  <path d="M34 187v12M28 199h12" stroke="#a78bfa" stroke-width="2" stroke-linecap="round"/>
  <rect x="52" y="180" width="100" height="14" rx="3" fill="#312e81"/>
  <rect x="240" y="182" width="90" height="22" rx="6" fill="#6366f1"/>
  <path d="M275 191v8M271 195h8" stroke="#fff" stroke-width="1.5" stroke-linecap="round"/>
</svg>
