<svg xmlns="http://www.w3.org/2000/svg" viewBox="0 0 360 220" fill="none" aria-hidden="true">
  <rect width="360" height="220" rx="14" fill="#0c0c14"/>
  <rect width="360" height="220" rx="14" stroke="rgba(167,139,250,0.25)" stroke-width="1"/>
  <rect x="10" y="10" width="340" height="24" rx="6" fill="#151520"/>
  <rect x="18" y="16" width="48" height="12" rx="3" fill="#312e81"/>
  <rect x="280" y="16" width="62" height="12" rx="3" fill="#1e293b"/>
  <rect x="14" y="44" width="108" height="162" rx="8" fill="#12121a" stroke="rgba(99,102,241,0.35)"/>
  <rect x="22" y="54" width="92" height="72" rx="4" fill="#1a1528"/>
  <rect x="22" y="134" width="92" height="6" rx="2" fill="#334155"/>
  <rect x="22" y="146" width="64" height="4" rx="1" fill="#475569"/>
  <rect x="126" y="44" width="108" height="162" rx="8" fill="#12121a" stroke="rgba(34,211,238,0.3)"/>
  <rect x="134" y="54" width="92" height="72" rx="4" fill="#0f172a"/>
  <rect x="142" y="70" width="76" height="40" rx="2" fill="#312e81" opacity="0.6"/>
  <rect x="134" y="134" width="92" height="6" rx="2" fill="#334155"/>
  <rect x="134" y="146" width="64" height="4" rx="1" fill="#475569"/>
  <rect x="238" y="44" width="108" height="162" rx="8" fill="#12121a" stroke="rgba(167,139,250,0.2)"/>
  <rect x="246" y="54" width="92" height="72" rx="4" fill="#1a1a12"/>
  <rect x="254" y="66" width="30" height="28" rx="2" fill="#854d0e" opacity="0.5"/>
  <rect x="288" y="74" width="42" height="20" rx="2" fill="#422006" opacity="0.6"/>
  <rect x="246" y="134" width="92" height="6" rx="2" fill="#334155"/>
  <rect x="246" y="146" width="64" height="4" rx="1" fill="#475569"/>
  <text x="68" y="212" text-anchor="middle" fill="#94a3b8" font-size="9" font-family="system-ui,sans-serif">A</text>
  <text x="180" y="212" text-anchor="middle" fill="#5eead4" font-size="9" font-family="system-ui,sans-serif" font-weight="600">B</text>
  <text x="292" y="212" text-anchor="middle" fill="#94a3b8" font-size="9" font-family="system-ui,sans-serif">C</text>
</svg>
