<svg xmlns="http://www.w3.org/2000/svg" viewBox="0 0 360 220" fill="none" aria-hidden="true">
  <defs>
    <linearGradient id="g" x1="0%" y1="0%" x2="100%" y2="100%">
      <stop offset="0%" stop-color="#6366f1" stop-opacity="0.35"/>
      <stop offset="100%" stop-color="#22d3ee" stop-opacity="0.15"/>
    </linearGradient>
  </defs>
  <rect width="360" height="220" rx="14" fill="#0c0c14"/>
  <rect x="0" y="0" width="360" height="220" rx="14" stroke="rgba(167,139,250,0.25)" stroke-width="1"/>
  <rect x="10" y="10" width="340" height="28" rx="8" fill="#151520"/>
  <circle cx="26" cy="24" r="4" fill="#64748b"/>
  <circle cx="40" cy="24" r="4" fill="#64748b"/>
  <circle cx="54" cy="24" r="4" fill="#64748b"/>
  <rect x="200" y="16" width="140" height="16" rx="4" fill="#1e1e2e"/>
  <rect x="14" y="48" width="72" height="158" rx="8" fill="#12121a" stroke="rgba(255,255,255,0.06)"/>
  <rect x="24" y="60" width="52" height="6" rx="2" fill="#312e81"/>
  <rect x="24" y="74" width="44" height="4" rx="2" fill="#334155"/>
  <rect x="24" y="84" width="48" height="4" rx="2" fill="#334155"/>
  <rect x="24" y="108" width="52" height="6" rx="2" fill="#4338ca"/>
  <rect x="24" y="122" width="40" height="4" rx="2" fill="#334155"/>
  <rect x="96" y="48" width="250" height="158" rx="10" fill="url(#g)" opacity="0.4"/>
  <rect x="108" y="62" width="226" height="130" rx="8" fill="#0f0f18" stroke="rgba(167,139,250,0.2)"/>
  <circle cx="130" cy="88" r="10" stroke="#a78bfa" stroke-width="2"/>
  <text x="130" y="92" text-anchor="middle" fill="#a78bfa" font-size="11" font-family="system-ui,sans-serif" font-weight="700">1</text>
  <circle cx="180" cy="88" r="10" fill="#6366f1"/>
  <text x="180" y="92" text-anchor="middle" fill="#fff" font-size="11" font-family="system-ui,sans-serif" font-weight="700">2</text>
  <circle cx="230" cy="88" r="10" stroke="#475569" stroke-width="2"/>
  <text x="230" y="92" text-anchor="middle" fill="#64748b" font-size="11" font-family="system-ui,sans-serif" font-weight="700">3</text>
  <rect x="120" y="112" width="200" height="10" rx="3" fill="#1e293b"/>
  <rect x="120" y="130" width="160" height="10" rx="3" fill="#1e293b"/>
  <rect x="120" y="148" width="88" height="8" rx="2" fill="#4c1d95"/>
  <rect x="214" y="148" width="88" height="8" rx="2" fill="#134e4a"/>
  <rect x="308" y="148" width="12" height="8" rx="2" fill="#312e81"/>
</svg>
